HIERARCHY
ROOT Hips
{
	OFFSET -0.001795 -0.223333 0.028219
	CHANNELS 6 Xposition Yposition Zposition Zrotation Yrotation Xrotation 
	JOINT LeftUpLeg
	{
		OFFSET 0.069520 -0.091406 -0.006815
		CHANNELS 3 Zrotation Yrotation Xrotation
		JOINT LeftLeg
		{
			OFFSET 0.034277 -0.375199 -0.004496
			CHANNELS 3 Zrotation Yrotation Xrotation
			JOINT LeftFoot
			{
				OFFSET -0.013596 -0.397961 -0.043693
				CHANNELS 3 Zrotation Yrotation Xrotation
				JOINT LeftToe
				{
					OFFSET 0.026358 -0.055791 0.119288
					CHANNELS 3 Zrotation Yrotation Xrotation
					End Site
					{
						OFFSET 0.000000 0.000000 0.000000
					}
				}
			}
		}
	}
	JOINT RightUpLeg
	{
		OFFSET -0.067670 -0.090522 -0.004320
		CHANNELS 3 Zrotation Yrotation Xrotation
		JOINT RightLeg
		{
			OFFSET -0.038290 -0.382569 -0.008850
			CHANNELS 3 Zrotation Yrotation Xrotation
			JOINT RightFoot
			{
				OFFSET 0.015774 -0.398415 -0.042312
				CHANNELS 3 Zrotation Yrotation Xrotation
				JOINT RightToe
				{
					OFFSET -0.025372 -0.048144 0.123348
					CHANNELS 3 Zrotation Yrotation Xrotation
					End Site
					{
						OFFSET 0.000000 0.000000 0.000000
					}
				}
			}
		}
	}
	JOINT Spine
	{
		OFFSET -0.002533 0.108963 -0.026696
		CHANNELS 3 Zrotation Yrotation Xrotation
		JOINT Spine1
		{
			OFFSET 0.005487 0.135180 0.001092
			CHANNELS 3 Zrotation Yrotation Xrotation
			JOINT Spine2
			{
				OFFSET 0.001457 0.052922 0.025425
				CHANNELS 3 Zrotation Yrotation Xrotation
				JOINT Neck
				{
					OFFSET -0.002778 0.213870 -0.042857
					CHANNELS 3 Zrotation Yrotation Xrotation
					JOINT Head
					{
						OFFSET 0.005152 0.064970 0.051349
						CHANNELS 3 Zrotation Yrotation Xrotation
						End Site
						{
							OFFSET 0.000000 0.000000 0.000000
						}
					}
				}
				JOINT LeftShoulder
				{
					OFFSET 0.078845 0.121749 -0.034090
					CHANNELS 3 Zrotation Yrotation Xrotation
					JOINT LeftArm
					{
						OFFSET 0.090977 0.030469 -0.008868
						CHANNELS 3 Zrotation Yrotation Xrotation
						JOINT LeftForeArm
						{
							OFFSET 0.259612 -0.012772 -0.027456
							CHANNELS 3 Zrotation Yrotation Xrotation
							JOINT LeftHand
							{
								OFFSET 0.249234 0.008986 -0.001171
								CHANNELS 3 Zrotation Yrotation Xrotation
								End Site
								{
									OFFSET 0.000000 0.000000 0.000000
								}
							}
						}
					}
				}
				JOINT RightShoulder
				{
					OFFSET -0.081759 0.118833 -0.038615
					CHANNELS 3 Zrotation Yrotation Xrotation
					JOINT RightArm
					{
						OFFSET -0.096012 0.032551 -0.009143
						CHANNELS 3 Zrotation Yrotation Xrotation
						JOINT RightForeArm
						{
							OFFSET -0.253742 -0.013329 -0.021401
							CHANNELS 3 Zrotation Yrotation Xrotation
							JOINT RightHand
							{
								OFFSET -0.255298 0.007772 -0.005559
								CHANNELS 3 Zrotation Yrotation Xrotation
								End Site
								{
									OFFSET 0.000000 0.000000 0.000000
								}
							}
						}
					}
				}
			}
		}
	}
}
MOTION
Frames: 6
Frame Time: 0.050000
-0.000848 0.955870 -0.052934 -1.118404 -0.407291 4.155403 3.998913 -0.173571 -1.530565 0.723327 0.107718 -4.615105 -0.107786 4.851544 13.492412 0.000000 0.000000 0.000000 -3.016441 0.320044 -2.923600 -2.534179 0.103362 -2.574404 3.810794 1.359426 14.146980 0.000000 0.000000 0.000000 6.001583 0.317365 -4.817566 -3.273123 1.538663 -1.543450 -5.395497 6.735339 11.734223 11.820789 -6.819954 -11.307908 0.000000 0.000000 0.000000 -2.864038 -10.586500 3.255412 -48.246989 -30.870602 5.640792 -127.273513 -70.459296 111.713705 0.000000 0.000000 0.000000 1.786356 2.498126 0.979491 56.821254 27.458502 8.240422 134.820231 65.898320 125.728442 0.000000 0.000000 0.000000 
-0.001291 0.955663 -0.053085 -1.188992 -0.294463 4.378218 4.131447 -0.202527 -1.978755 0.698531 0.097007 -4.304191 -0.112103 4.819477 13.369140 0.000000 0.000000 0.000000 -3.016445 0.343877 -3.228444 -2.333355 0.094907 -2.448564 3.735580 1.265053 14.092301 0.000000 0.000000 0.000000 5.890107 0.311470 -4.838524 -3.068675 1.445606 -1.345937 -5.557595 6.435343 11.444393 12.019384 -7.025589 -11.102676 0.000000 0.000000 0.000000 -3.413767 -10.277192 3.122435 -47.682341 -30.282460 5.376533 -123.629825 -70.419667 107.421516 0.000000 0.000000 0.000000 2.525998 2.253381 0.903840 56.454927 26.988229 7.856243 131.416947 66.346197 121.398029 0.000000 0.000000 0.000000 
-0.001726 0.955529 -0.053089 -1.152296 -0.289887 4.415665 4.235290 -0.207950 -2.060215 0.496984 0.108567 -4.235089 -0.111329 4.813882 13.348072 0.000000 0.000000 0.000000 -3.103403 0.351921 -3.326554 -2.201478 0.090192 -2.344074 3.711718 1.260981 14.006395 0.000000 0.000000 0.000000 5.641303 0.285655 -4.616761 -2.916628 1.375530 -1.377424 -5.555389 6.315080 11.484113 11.928747 -7.019216 -10.917649 0.000000 0.000000 0.000000 -4.360533 -9.858406 2.917996 -47.234707 -30.097926 5.273468 -118.590323 -70.405077 101.659612 0.000000 0.000000 0.000000 3.239918 1.992824 0.818741 56.874726 25.767121 7.241803 126.166322 65.829096 114.009675 0.000000 0.000000 0.000000 
-0.002225 0.955343 -0.052921 -1.182919 -0.132278 4.460832 4.409494 -0.215192 -2.148688 0.332754 0.118860 -4.194563 -0.178136 4.708529 13.287526 0.000000 0.000000 0.000000 -2.956521 0.360974 -3.463766 -2.323141 0.114483 -2.118024 3.599068 1.136887 13.870695 0.000000 0.000000 0.000000 5.424663 0.266589 -4.465021 -2.793032 1.319920 -1.060351 -5.653233 6.076205 11.016219 12.029803 -7.023258 -11.147580 0.000000 0.000000 0.000000 -5.070656 -9.646905 2.793871 -46.877008 -29.750902 5.162188 -113.535859 -70.304927 95.882938 0.000000 0.000000 0.000000 4.139917 1.823735 0.765977 57.421375 24.755946 6.803633 119.867155 65.000723 105.103158 0.000000 0.000000 0.000000 
-0.002682 0.954962 -0.052561 -1.145936 0.023704 4.438175 4.457042 -0.216754 -2.156812 0.253710 0.122525 -4.142002 -0.234665 4.601356 13.170323 0.000000 0.000000 0.000000 -2.919212 0.362150 -3.493296 -2.387970 0.132349 -1.926419 3.474586 1.022962 13.659421 0.000000 0.000000 0.000000 5.178503 0.246579 -4.281736 -2.693260 1.274074 -1.098506 -5.699034 5.960008 11.006564 12.083661 -7.177124 -10.718582 0.000000 0.000000 0.000000 -5.865779 -9.721125 2.768883 -46.320097 -29.731278 5.106792 -109.389259 -70.209749 91.269849 0.000000 0.000000 0.000000 5.006085 1.722325 0.744823 58.109418 23.602894 6.268755 115.057544 64.223890 98.496330 0.000000 0.000000 0.000000 
-0.003143 0.954747 -0.052105 -1.094592 0.236868 4.447776 4.503513 -0.216093 -2.099559 0.157058 0.134075 -4.274744 -0.344404 4.443466 13.144687 0.000000 0.000000 0.000000 -2.903777 0.363269 -3.518063 -2.432582 0.146095 -1.778426 3.337083 0.865542 13.505179 0.000000 0.000000 0.000000 5.111606 0.229742 -4.113681 -2.608224 1.234924 -0.808927 -5.961469 5.997586 10.461750 12.368487 -7.444737 -10.350827 0.000000 0.000000 0.000000 -6.073275 -9.807543 2.755426 -45.903108 -29.819311 5.133964 -107.959234 -69.916000 89.208398 0.000000 0.000000 0.000000 5.545519 1.563849 0.702540 58.583628 22.519159 5.821334 113.165091 64.010910 96.128077 0.000000 0.000000 0.000000 
